PathFileType	4	(X/Y/Z)	Patient4_TMGait_0pt2_02_right_07.trc.trc
DataRate	CameraRate	NumFrames	NumMarkers	Units	OrigDataRate	OrigDataStartFrame	OrigNumFrames
42.296072507553	42.296072507553	4	33	mm	42.296072507553	36	       141
Frame#	Time	R.Midfoot.Superior			Sacral			L.Shoulder			Chest			R.Shoulder			Neck			R.ASIS			L.ASIS			R.Thigh.Superior			R.Thigh.Lateral			R.Thigh.Inferior			R.Patella			L.Thigh.Superior			L.Thigh.Lateral			L.Thigh.Inferior			L.Patella			L.Shank.Superior			L.Shank.Lateral			L.Shank.Inferior			R.Shank.Superior			R.Shank.Lateral			R.Shank.Inferior			R.Heel			R.Midfoot.Lateral			R.Toe			L.Heel			L.Midfoot.Lateral			L.Midfoot.Superior			L.Toe			L.Elbow			L.Wrist			R.Elbow			R.Wrist			
		X1	Y1	Z1	X2	Y2	Z2	X3	Y3	Z3	X4	Y4	Z4	X5	Y5	Z5	X6	Y6	Z6	X7	Y7	Z7	X8	Y8	Z8	X9	Y9	Z9	X10	Y10	Z10	X11	Y11	Z11	X12	Y12	Z12	X13	Y13	Z13	X14	Y14	Z14	X15	Y15	Z15	X16	Y16	Z16	X17	Y17	Z17	X18	Y18	Z18	X19	Y19	Z19	X20	Y20	Z20	X21	Y21	Z21	X22	Y22	Z22	X23	Y23	Z23	X24	Y24	Z24	X25	Y25	Z25	X26	Y26	Z26	X27	Y27	Z27	X28	Y28	Z28	X29	Y29	Z29	X30	Y30	Z30	X31	Y31	Z31	X32	Y32	Z32	X33	Y33	Z33	

36	15.317500000000	1047.249427658860	97.789143771164	609.198549130432	794.648620168495	1015.015540048834	454.824814377326	1053.538917801783	1422.284860804411	313.139841522961	1101.989389364720	1352.805049066945	496.757098717995	986.061670273974	1443.452410182007	639.363838013394	993.887830347181	1490.805955665090	459.659325795224	995.515996805822	939.207981541739	615.336111581336	1031.996544025098	952.039392224816	342.696805015341	1053.909478000610	747.119709066876	581.307850608717	982.050313645309	632.899497007765	641.475610261578	1064.999955537178	584.566844584582	563.544201709784	1075.118072841649	496.621066291709	573.209557795172	1031.449553776065	725.703024163930	368.120205043324	926.540587545073	626.254620905633	294.218121603748	987.472814772972	535.303103402622	362.305583816754	973.606681768970	465.608263772071	366.765115146885	929.327633208991	402.807542872585	354.291292303471	817.287133822482	311.909539227085	298.925271878872	842.336623359706	189.026396765238	363.824177578410	1045.599330856821	407.312419635532	584.079921248596	976.535658636371	308.349230518437	655.529389462656	1012.716083058368	209.298208065364	595.941080179346	873.440376104915	46.192232637263	585.433010398031	961.462712576187	39.272082015609	654.214142772409	1168.201585951813	43.684035973493	631.338142062132	690.189263765345	49.483910466887	403.671383810069	761.744677543237	40.980126616340	322.133171738675	849.247916144787	97.419289287559	346.555846203411	972.898668486556	38.633872797441	313.187303208879	1214.355221628217	1144.670045486161	165.052117899613	1473.861479170360	1122.674147908212	187.863965743839	794.549710235669	1150.958121376665	720.252767098848	737.986625313351	893.430927946945	714.879542796632	
37	15.341142857143	1043.110562123787	97.796278956121	609.272534863068	796.277259841568	1015.461338497159	462.650107047827	1053.936013819850	1422.349941072041	317.488154502008	1104.087366960780	1353.283994851423	500.714356930911	989.525563864712	1444.219066953303	644.304364244323	995.701326251757	1491.182136884222	464.286129500721	998.729081758857	939.851408428630	621.249257303282	1032.718439366751	952.181121725839	348.099802411255	1055.924171976502	747.286114930830	585.772624093658	984.023484390026	632.748431149592	645.733489064910	1066.240408095279	584.374431019404	567.133221592586	1075.993290195900	495.845333824470	576.113961086972	1030.590534417989	725.658685437528	372.306248809081	924.666428291514	627.382754090807	297.934544415737	985.838083804667	535.509740750265	364.597320050491	971.617963680185	465.802666984399	368.562810926833	926.838871841358	403.509676185089	355.924938702138	813.723849901304	313.794911976869	300.597379778956	838.742695617613	190.024899248436	364.073291672161	1045.317812610598	406.774112577717	586.273176858242	975.396159552797	308.003947231662	657.100292528347	1010.148590284160	209.030410249639	596.652214022758	869.160288891248	46.694002801585	585.413516791096	957.151637804266	39.590481835631	654.236840058599	1163.948918030924	43.138261297414	631.514671822196	685.855304588472	51.272193728712	403.484404453562	757.360414051262	41.836932796854	322.030828558744	845.265030001522	97.775464348721	346.192534400755	968.411578530981	38.423376691180	313.073702168904	1209.717008791964	1139.886244867829	170.340187695516	1468.974983680565	1110.431834675222	192.070016486775	799.010239688797	1151.673509461672	727.703227085206	743.185869881304	894.021593571865	723.721480815310	
38	15.364785714286	1038.931834908947	97.796032409377	609.310682250072	797.889506112160	1015.842063929639	470.704295090608	1054.030958009264	1422.401953796945	321.778890907267	1106.107274621244	1353.742475147511	504.516907378546	993.089278126545	1444.896877877184	649.260385217916	997.420500091928	1491.520349584539	468.915995310142	1002.060073270593	940.400384327135	627.092774564581	1033.288670448711	952.343885623902	353.467231426255	1057.943459841007	747.282706723522	590.209313169005	985.908417422807	632.494263230505	649.991220203687	1067.344484621683	584.084364578468	570.686685063756	1076.654255460564	494.991675881598	579.012315624825	1029.807835901059	725.678195713758	376.399122871039	922.867333626531	628.491025873287	301.686104654649	984.484047675321	535.720572748952	366.798453073811	969.950679939496	465.935103118080	370.265466907081	924.577159687745	404.184213541371	357.510528957391	810.293003106118	315.723821409878	302.322787727598	835.288702535261	191.047267859194	364.320879723219	1044.842898119052	406.180902600917	588.491218708074	974.049399198991	307.603504651652	658.660473305107	1007.462344099684	208.754589387274	597.372662946334	864.846837557780	47.202751932588	585.339456423700	952.793901422961	39.912316093035	654.204014078995	1159.630433563833	42.607228419503	631.653186181922	681.581456417482	53.126860155724	403.291555530436	753.006225683066	42.686397986234	321.919262180830	841.370182676487	98.088417640955	345.788161874782	963.962255388413	38.227540540666	312.955370624325	1203.645321806101	1134.349566929262	175.838897263274	1462.238906356808	1095.862986184088	196.333394084456	803.669583065091	1152.229162241229	735.165302465153	748.775292563993	894.422880917705	732.471758555452	
39	15.388428571429	1034.680456067472	97.789753300756	609.323005257059	799.482316247006	1016.148925424276	478.933354448174	1053.835902930731	1422.415787052275	326.023186290730	1108.041840567538	1354.151513341969	508.180065325019	996.713492656351	1445.445308486986	654.222940929387	999.042204091715	1491.798436521824	473.550340070358	1005.472483693695	940.819487281226	632.836704841713	1033.694163091297	952.531822165063	358.804228965110	1059.971826113387	747.103546382694	594.581460372368	987.716883760215	632.125538175078	654.199805731395	1068.333527074156	583.691247862946	574.158033272628	1077.120307175485	494.052549952655	581.861070783743	1029.167251180723	725.750489746572	380.413812840637	921.251104619535	629.528159231028	305.475606447909	983.515900908794	535.901547286995	368.947163413251	968.730302384490	465.949966147351	371.890024394132	922.643700222458	404.790649366215	359.067732599257	807.090501419956	317.690629466709	304.099168324954	832.018743179175	192.090094687727	364.583653837618	1044.187870264470	405.522180648399	590.705301961016	972.504503866968	307.149415568508	660.193691049660	1004.648549293239	208.458245398135	598.091985649376	860.470538592048	47.707562477554	585.223380959753	948.361478538085	40.228430675072	654.130170491678	1155.223360342140	42.105560691008	631.764406782052	677.373632294635	55.093898735657	403.091521358468	748.679960762691	43.567303994782	321.798659931852	837.575040494128	98.366141852821	345.350724276164	959.532589912330	38.040138112781	312.835906148998	1196.095753769714	1128.105723909704	181.596290381749	1453.343099064226	1078.936431772155	200.684502385399	808.589973346742	1152.501465114517	742.697060948619	754.942378854610	894.481947922208	741.293773386526	
